<svg viewBox="0 0 711.13 709.97" xmlns="http://www.w3.org/2000/svg"><defs><style>.cls-1{fill:#fff;}</style></defs><title>PORPMPT-KING LOGO</title><g data-name="Layer 2" id="Layer_2"><g data-name="Layer 1" id="Layer_1-2"><path d="M430.45,245.14H225.32a9.85,9.85,0,0,0-9.85,9.86h0a9.85,9.85,0,0,0,9.85,9.85H430.45A9.85,9.85,0,0,0,440.3,255h0A9.85,9.85,0,0,0,430.45,245.14Z" class="cls-1"></path><path d="M189.1,127.64a6.44,6.44,0,0,1,3,12.16,308.09,308.09,0,0,0,48.66,65.6L262.14,163a6.46,6.46,0,1,1,6.26-.16l24.7,42.56c15.06-21.62,25.92-48.87,33.29-79.89a6.46,6.46,0,1,1,3,0c7.38,31,18.24,58.27,33.3,79.89l24.7-42.55a6.47,6.47,0,1,1,6.25.14L415,205.4a307.64,307.64,0,0,0,48.82-65.89,6.45,6.45,0,1,1,3.52,1.05,6.06,6.06,0,0,1-1.87-.31l-35,100H225.32l-35-99.85a6.39,6.39,0,0,1-1.25.12,6.46,6.46,0,1,1,0-12.92Zm231.83,97.57a3.88,3.88,0,1,0-3.87-3.87A3.88,3.88,0,0,0,420.93,225.21Zm-31,0a3.88,3.88,0,1,0-3.88-3.87A3.87,3.87,0,0,0,389.92,225.21Zm-31,0a3.88,3.88,0,1,0-3.88-3.87A3.88,3.88,0,0,0,358.9,225.21Zm-31,0a3.88,3.88,0,1,0-3.87-3.87A3.88,3.88,0,0,0,327.88,225.21Zm-31,0a3.88,3.88,0,1,0-3.88-3.87A3.87,3.87,0,0,0,296.87,225.21Zm-31,0a3.88,3.88,0,1,0-3.88-3.87A3.88,3.88,0,0,0,265.85,225.21Zm-31,0a3.88,3.88,0,1,0-3.87-3.87A3.88,3.88,0,0,0,234.83,225.21Z" class="cls-1"></path><polygon points="206.84 474.17 214.58 441.88 293.7 531.21 257.35 531.21 206.84 474.17" class="cls-1"></polygon><polygon points="376.94 516.72 411.35 555.58 376.94 555.58 376.94 516.72" class="cls-1"></polygon><polygon points="376.94 468.62 453.95 555.58 417.84 555.58 376.94 509.4 376.94 468.62" class="cls-1"></polygon><polygon points="496.55 555.58 460.43 555.58 376.94 461.3 376.94 422.84 377.88 421.57 496.55 555.58" class="cls-1"></polygon><path d="M243.33,269.7l91.59,103.73,27.66-37.25,36.33,48.93L362.58,434,335.05,397l-55.57,62.73-48-54.2h12.79l-14.05-31.12-10.63,8.76,3.08,3.74,5.74-4.72,8.34,18.51h-43.6L224.6,286.93V269.7Zm-6.67,75,36.83-10.45-36.83-10.44Z" class="cls-1"></path><polygon points="282.73 463.35 334.72 404.65 351.21 426.86 300.81 483.76 282.73 463.35" class="cls-1"></polygon><polygon points="223.67 404 318.89 511.5 301.44 531.21 300.18 531.21 215.96 436.12 223.67 404" class="cls-1"></polygon><polygon points="362.58 442.18 372.09 429.37 372.09 451.44 322.13 507.84 304.05 487.43 354.16 430.85 362.58 442.18" class="cls-1"></polygon><polygon points="249.81 269.7 285.97 269.7 351.2 343.36 334.59 365.74 249.81 269.7" class="cls-1"></polygon><polygon points="372.09 458.76 372.09 555.58 331.87 555.58 312.38 555.58 312.38 531.21 307.92 531.21 372.09 458.76" class="cls-1"></polygon><path d="M380.83,417.59l16.47-22.18,130.14,147c0,8-.41,13.22-.41,13.22H503Z" class="cls-1"></path><polygon points="250.87 531.21 193.15 531.21 205.45 479.93 250.87 531.21" class="cls-1"></polygon><polygon points="420.34 269.7 431.38 269.7 431.38 282.16 420.34 269.7" class="cls-1"></polygon><path d="M335.05,269.7h36.21l92.65,104.61c.93,15.41-1.91,28.5,1.44,42.52Z" class="cls-1"></path><path d="M377.75,269.7h36.11l17.52,19.78v23.17a84.72,84.72,0,0,1,25.12,32A80.83,80.83,0,0,1,463,366Z" class="cls-1"></path><path d="M400.26,391.43l4.69-6.32L362.58,328l-8.42,11.34-61.7-69.68h36.11L470.09,429.5c10.47,20.49,27.22,24.89,43.46,47.64,10.52,14.74,13.27,39.93,13.79,57.78Z" class="cls-1"></path><path d="M265.65,11.31c6.87-2.3,12.55-.64,16.9,4.88,1,1,2,2.88,3,5.84l3.92,11.73c2.53,7.57.87,13.65-4.73,18.16a34,34,0,0,1-5.13,2.37l-40.74,13.6,9.3,27.82c.15.48,0,.68-.4.79l-12.91,4.31a.54.54,0,0,1-.79-.39l-23.4-70.1c0-.39,0-.67.39-.79ZM234.17,53.8l41.68-13.92L271,25.2,229.27,39.12Z" class="cls-1"></path><path d="M361.86,0q11.77-.57,15.2,12c.19,1.36.4,3.1.5,5.22l.47,9.6c.44,9.1-2.65,14.88-9.4,17.45a31.16,31.16,0,0,1-5.46.89l-2.24.11L381.3,73.69l0,.62-16.71.81q-3-3-20.9-29L319.91,47.3l1.42,29.3a.6.6,0,0,1-.6.65l-13.34.65c-.37,0-.51-.23-.53-.6L303.29,3.49c0-.38.09-.63.47-.65ZM319.19,32.46l44.13-2.14-.74-15.46L318.44,17Z" class="cls-1"></path><path d="M442,10.83c16.9,3.91,26,13.71,27.19,29.23a30.84,30.84,0,0,1-.55,6.79l-4.14,17.88c-2.11,9.12-8.41,15.86-18.69,20.4q-8.21,3.09-19,.6l-12.29-2.84c-14.83-3.43-23.12-13-24.72-28.79a36.86,36.86,0,0,1,.63-7.15l3.85-16.67c2.51-10.82,10.1-18.16,22.54-22.07,4.34-1.05,10.07-.87,17.36.82Zm-36.7,37.88c-1.67,7.18.43,13,6.11,17.31a31.14,31.14,0,0,0,7.71,2.68l11.07,2.56q12.21,2.83,18.41-6.5A23.43,23.43,0,0,0,450.09,61l4-17.15q2.32-10-8.83-16.65a58,58,0,0,0-6-1.77l-8.76-2q-13.5-3.12-18.81,4.88c-1.43,1.2-2.48,3.52-3.27,6.93Z" class="cls-1"></path><path d="M512.62,36.41c.43.26-.81,17.41-3.71,51.17.37,1.1-.05,6.66-1.11,16.94l.32.19C546.2,80.22,565.43,68,566,68.34l13.17,7.88c.36.36.34.64.22.86l-38,63.41c-.26.43-.43.47-.86.22l-11.67-7a.53.53,0,0,1-.22-.86l23-38.45-.21-.13q-42.5,27.6-42.94,27.26l-15.64-9.36c-.42-.26.8-17.13,3.63-50.79l-.22-.12-23,38.45a.54.54,0,0,1-.86.22l-11.67-7c-.43-.26-.47-.43-.22-.86l38-63.41a.6.6,0,0,1,.86-.22Z" class="cls-1"></path><path d="M636.05,137.86c4.81,5.41,5.52,11.29,2.15,17.46-.52,1.3-1.85,3-4.19,5.06l-9.23,8.21c-6,5.31-12.22,6.18-18.56,2.8a32,32,0,0,1-4.2-3.79l-28.53-32.09L551.56,155a.53.53,0,0,1-.88-.05l-9-10.17a.53.53,0,0,1,.06-.88L596.93,94.8c.37-.16.64-.23.88,0Zm-51.46-12.22,29.2,32.84,11.57-10.28-29.19-32.85Z" class="cls-1"></path><path d="M691,235.43c0,.4,0,.67-.29.84l-12.23,6a.58.58,0,0,1-.83-.28l-12.7-26-54.19,26.42a.58.58,0,0,1-.83-.28l-6-12.23a.6.6,0,0,1,.29-.84l54.19-26.43-12.91-26.47a.59.59,0,0,1,.28-.84l12.23-6c.4-.06.67,0,.84.28Z" class="cls-1"></path><path d="M707.69,314c-.1.5-.34.64-.59.65l-33.4,1.88,1.55,27.55c.53,9.47,4.1,15.14,10.58,17,1.55.79,3.81,1,6.8.87l17.08-1a.58.58,0,0,1,.65.59l.77,13.58c-.11.38-.34.65-.59.66l-18.57,1c-9.6.54-18.21-3.6-25.84-12.55-5.66,8.2-13.29,12.63-22.76,13.16-4.61.26-7.14-.22-7.45-1.21l-.79-14.21.21-.63a21.34,21.34,0,0,0,6.95,1.23c8-.45,12.94-5.48,15.16-14.85,1.76-6.6,2.56-10.15,2.53-10.65l-1.11-19.81-25.55,1.43c-.5,0-.63-.09-.66-.59l-.76-13.58c0-.38.09-.63.58-.66l73.79-4.15c.38.11.64.34.66.59Z" class="cls-1"></path><path d="M705.72,407.51c-.17.36-.45.58-.69.55l-73.37-8.85c-.5-.06-.59-.33-.55-.7L632.74,385c.06-.49.2-.6.7-.54l73.36,8.85a.59.59,0,0,1,.55.7Z" class="cls-1"></path><path d="M701,436.17l-63.13,33.57,47.6,14.68a.59.59,0,0,1,.41.78l-4,13c-.23.32-.54.49-.78.41l-70.62-21.78c-.48-.14-.52-.42-.41-.78l3.09-10,62.26-33.31-46.88-14.46c-.47-.15-.56-.3-.41-.78l4-13a.54.54,0,0,1,.78-.42l70.62,21.78a.8.8,0,0,1,.42.78Z" class="cls-1"></path><path d="M590,557.83c-7.83-5.14-12-13.28-12.69-24.59q-.08-8.79,6-18l6.91-10.55c8.35-12.73,20.23-17.19,35.57-13.25a35.68,35.68,0,0,1,6.49,3.06l14.31,9.38c9.29,6.09,13.62,15.65,12.93,28.78-.35,4.4-2.67,9.75-6.77,16l-4.38,6.69c-9.52,14.51-21.87,19.69-36.83,15.41-1.08-.41-2-.75-2.85-1.12L617,557c4.62,1.38,9.56,0,14.9-4.27a61.82,61.82,0,0,0,3.73-5l4.93-7.51q7.59-11.6,1.93-19.34c-.64-1.76-2.45-3.55-5.38-5.46l-11.58-7.6c-6.16-4-12.33-4.2-18.36-.24a30.9,30.9,0,0,0-5.18,6.3l-6.23,9.5q-6.87,10.5-.26,19.54a24.33,24.33,0,0,0,3,2.71l.31.2,12.94-19.73c1.57-2.4,3.08-4.7,4.55-7.17l12.52,8.22L603,566.49l-12.42-8.15.06-.1Z" class="cls-1"></path><path d="M531.24,630.9c-3.73,2.73-7.43,3-11,.44A13.11,13.11,0,0,1,519,630l-.58-.8c-1.85-2.52-1.63-5.62.66-9.46l.94-.84,31.25-22.82c4.52-2.07,8.23-1.22,11,2.61,2.07,2.82,1.83,6.09-.75,10a20.91,20.91,0,0,1-2.14,1.72Z" class="cls-1"></path><path d="M427.47,703c-7,2-12.57,0-16.63-5.72-.94-1-1.87-3-2.71-6l-3.34-11.9c-2.15-7.69-.2-13.69,5.62-17.91a32.24,32.24,0,0,1,5.24-2.11L457,647.8l-7.9-28.24a.53.53,0,0,1,.43-.77l13.1-3.67a.53.53,0,0,1,.77.43l19.92,71.17c0,.39-.07.66-.43.76ZM461,662.11,418.7,674l4.17,14.91L465.18,677Z" class="cls-1"></path><path d="M332.07,710q-11.79.18-14.81-12.5c-.15-1.37-.3-3.11-.33-5.24l-.16-9.61c-.15-9.11,3.13-14.78,10-17.14a30,30,0,0,1,5.48-.71l2.25,0-19.45-29v-.63l16.72-.27q2.86,3.13,20,29.64l23.84-.39-.47-29.33a.58.58,0,0,1,.61-.63l13.36-.22c.37,0,.5.24.51.62l1.2,73.89c0,.37-.12.62-.49.63Zm43.69-31.05-44.18.71.25,15.48,44.19-.72Z" class="cls-1"></path><path d="M251.34,694.87c-16.69-4.74-25.33-15-25.72-30.53a30.63,30.63,0,0,1,.88-6.76l5-17.65c2.55-9,9.18-15.43,19.67-19.46q8.35-2.7,19,.33l12.13,3.44c14.65,4.16,22.45,14.16,23.28,30a38.1,38.1,0,0,1-1,7.12l-4.67,16.45c-3,10.69-11,17.65-23.6,20.94-4.39.83-10.1.38-17.3-1.67Zm38.53-36c2-7.08.2-13.05-5.26-17.58a30.77,30.77,0,0,0-7.57-3.06l-10.93-3.1q-12.06-3.44-18.71,5.58a24,24,0,0,0-1.7,3.67l-4.8,16.94q-2.82,9.9,8,17.06a58.3,58.3,0,0,0,5.9,2.07l8.64,2.45q13.33,3.79,19-3.94c1.49-1.13,2.66-3.4,3.61-6.76Z" class="cls-1"></path><path d="M182.05,665.83c-.42-.27,1.66-17.34,6.21-50.93-.31-1.1.38-6.64,1.94-16.86l-.31-.21c-39.23,22.6-59,33.85-59.56,33.5l-12.77-8.52c-.35-.38-.32-.65-.18-.86l41-61.48c.28-.42.45-.45.87-.17l11.32,7.55a.53.53,0,0,1,.17.86L145.88,606l.21.13q43.79-25.49,44.22-25.12l15.16,10.11c.42.28-1.63,17.07-6.1,50.55l.2.14,24.87-37.28a.54.54,0,0,1,.87-.18l11.32,7.56c.41.27.45.45.17.86l-41,61.48a.59.59,0,0,1-.87.17Z" class="cls-1"></path><path d="M63.74,558.51c-4.55-5.64-5-11.55-1.31-17.55.58-1.27,2-2.89,4.43-4.84l9.63-7.76c6.22-5,12.5-5.57,18.67-1.89a32.83,32.83,0,0,1,4,4L126.1,563.9,149,545.5a.54.54,0,0,1,.88.1l8.53,10.6a.53.53,0,0,1-.09.87l-57.56,46.35c-.37.14-.65.2-.88-.09Zm50.79,14.71L87,539,74.91,548.7l27.56,34.23Z" class="cls-1"></path><path d="M13.6,458.31c0-.39,0-.67.32-.82l12.51-5.35a.58.58,0,0,1,.82.32l11.4,26.63,55.43-23.73a.58.58,0,0,1,.82.33l5.36,12.5a.6.6,0,0,1-.33.82L44.5,492.75l11.59,27.08a.59.59,0,0,1-.32.82L43.26,526c-.4,0-.68,0-.82-.32Z" class="cls-1"></path><path d="M1,379.9c.11-.5.36-.63.61-.64l33.45-.54-.45-27.58c-.15-9.49-3.49-15.3-9.89-17.45-1.52-.85-3.77-1.18-6.76-1.14l-17.1.28a.59.59,0,0,1-.64-.61L0,318.61c.12-.37.36-.63.61-.63l18.6-.3c9.61-.16,18,4.32,25.32,13.57,6-8,13.78-12.09,23.27-12.24,4.62-.08,7.12.51,7.39,1.5l.23,14.23-.24.63a21.49,21.49,0,0,0-6.89-1.51c-8,.13-13.15,5-15.75,14.24-2,6.52-3,10-2.95,10.53l.32,19.85,25.59-.42c.5,0,.63.12.64.62l.22,13.6c0,.38-.12.63-.62.64l-73.89,1.2c-.37-.12-.63-.37-.63-.62Z" class="cls-1"></path><path d="M7.32,285.75a.78.78,0,0,1,.72-.51l72.84,12.43c.5.09.58.35.51.72L79.1,311.8c-.08.5-.22.6-.72.51L5.54,299.88a.59.59,0,0,1-.51-.72Z" class="cls-1"></path><path d="M13.43,257.35l64.71-30.42-46.82-17a.6.6,0,0,1-.38-.8l4.65-12.79a.8.8,0,0,1,.8-.38l69.46,25.23a.54.54,0,0,1,.38.8l-3.58,9.86L38.81,262.06l46.12,16.75c.47.17.54.33.37.8L80.66,292.4a.54.54,0,0,1-.8.37L10.39,267.54c-.31-.25-.46-.57-.37-.8Z" class="cls-1"></path><path d="M130.27,141.28c7.57,5.51,11.38,13.85,11.47,25.18q-.36,8.78-6.87,17.7l-7.42,10.19Q114,212.83,91.29,205.85A34.53,34.53,0,0,1,85,202.47L71.12,192.41c-9-6.54-12.84-16.3-11.5-29.38.56-4.37,3.13-9.6,7.54-15.66l4.7-6.46c10.21-14,22.81-18.6,37.53-13.59,1.06.46,2,.84,2.79,1.26l-8.89,12.21c-4.54-1.61-9.54-.46-15.08,3.54a60.85,60.85,0,0,0-4,4.82L79,156.42q-8.16,11.21-2.88,19.21c.55,1.79,2.28,3.67,5.1,5.72l11.21,8.16c6,4.33,12.1,4.8,18.32,1.14a31.53,31.53,0,0,0,5.48-6.05l6.68-9.18q7.39-10.14,1.22-19.5a23.71,23.71,0,0,0-2.86-2.85l-.3-.22L107,171.92c-1.69,2.32-3.3,4.54-4.89,6.94L90,170l27.7-38,12,8.74-.08.1Z" class="cls-1"></path><path d="M192.5,71.16c3.86-2.54,7.56-2.59,11,.1a14.46,14.46,0,0,1,1.24,1.42l.54.84c1.72,2.6,1.36,5.68-1.12,9.41l-1,.79L170.84,105c-4.61,1.84-8.28.82-10.89-3.14-1.92-2.92-1.52-6.17,1.24-9.93a19.37,19.37,0,0,1,2.22-1.62Z" class="cls-1"></path></g></g></svg>