<svg xmlns="http://www.w3.org/2000/svg" width="128" height="128" fill="none" viewBox="0 0 128 128" id="crown">
  <path stroke="#000" stroke-linecap="round" stroke-linejoin="round" stroke-width="7" d="M33.812 85.2966L23.3102 43.242C23.1994 42.7984 23.6897 42.4488 24.073 42.6981 35.1549 49.908 49.9261 47.3147 57.8893 36.7611L64.4999 28 71.1105 36.761C79.0737 47.3146 93.845 49.908 104.927 42.6981 105.31 42.4488 105.801 42.7984 105.69 43.242L95.1878 85.2966C95.09 85.6882 94.6983 85.931 94.3041 85.8442 74.6694 81.5244 54.3304 81.5244 34.6958 85.8442 34.3015 85.931 33.9099 85.6882 33.812 85.2966zM34.6816 100.241C54.3256 95.9195 74.6743 95.9195 94.3182 100.241"></path>
</svg>
