<svg xmlns="http://www.w3.org/2000/svg" viewBox="0 0 711.13 710.03"><title>Asset 1</title><g id="Layer_2" data-name="Layer 2"><g id="Layer_1-2" data-name="Layer 1"><g id="Layer_2-2" data-name="Layer 2"><g id="Layer_1-2-2" data-name="Layer 1-2"><path d="M430.45,245.16H225.32a9.85,9.85,0,0,0-9.85,9.85h0a9.85,9.85,0,0,0,9.85,9.85H430.45A9.85,9.85,0,0,0,440.3,255h0a9.85,9.85,0,0,0-9.84-9.86Z"/><path d="M189.1,127.66a6.44,6.44,0,0,1,3,12.16,308.16,308.16,0,0,0,48.66,65.6L262.14,163a6.45,6.45,0,1,1,6.26-.16l24.7,42.56c15.06-21.62,25.92-48.87,33.29-79.89a6.46,6.46,0,1,1,3,0c7.38,31,18.24,58.27,33.3,79.89l24.7-42.55a6.48,6.48,0,1,1,6.25.14L415,205.42a307.35,307.35,0,0,0,48.82-65.89,6.46,6.46,0,1,1,3.52,1.05,5.64,5.64,0,0,1-1.87-.31l-35,100H225.32l-35-99.85a5.25,5.25,0,0,1-1.25.12,6.46,6.46,0,0,1,0-12.92h0Zm231.83,97.57a3.88,3.88,0,1,0-3.87-3.89v0a3.87,3.87,0,0,0,3.87,3.87Zm-31,0a3.88,3.88,0,1,0-3.88-3.88h0a3.87,3.87,0,0,0,3.87,3.87h0Zm-31,0a3.88,3.88,0,1,0-3.88-3.88h0a3.88,3.88,0,0,0,3.85,3.87Zm-31,0a3.88,3.88,0,1,0-3.87-3.89v0a3.88,3.88,0,0,0,3.82,3.87Zm-31,0a3.88,3.88,0,1,0-3.88-3.88h0a3.86,3.86,0,0,0,3.82,3.87Zm-31,0a3.88,3.88,0,1,0-3.88-3.88h0a3.87,3.87,0,0,0,3.8,3.87Zm-31,0a3.88,3.88,0,1,0-3.87-3.89v0a3.87,3.87,0,0,0,3.77,3.87Z"/><polygon points="206.84 474.19 214.58 441.9 293.7 531.24 257.35 531.24 206.84 474.19"/><polygon points="376.94 516.75 411.35 555.61 376.94 555.61 376.94 516.75"/><polygon points="376.94 468.64 453.95 555.61 417.84 555.61 376.94 509.43 376.94 468.64"/><polygon points="496.55 555.61 460.43 555.61 376.94 461.32 376.94 422.87 377.88 421.6 496.55 555.61"/><path d="M243.33,269.72l91.59,103.73,27.66-37.25,36.33,48.93L362.58,434l-27.53-37-55.57,62.73-48-54.2h12.79l-14.05-31.12-10.63,8.76,3.08,3.74,5.74-4.72,8.34,18.51h-43.6L224.6,287V269.72Zm-6.67,75,36.83-10.45-36.83-10.44Z"/><polygon points="282.73 463.38 334.72 404.68 351.21 426.88 300.81 483.79 282.73 463.38"/><polygon points="223.67 404.02 318.89 511.52 301.44 531.24 300.18 531.24 215.96 436.14 223.67 404.02"/><polygon points="362.58 442.2 372.09 429.39 372.09 451.46 322.13 507.87 304.05 487.45 354.16 430.88 362.58 442.2"/><polygon points="249.81 269.73 285.97 269.73 351.2 343.38 334.59 365.76 249.81 269.73"/><polygon points="372.09 458.79 372.09 555.61 331.87 555.61 312.38 555.61 312.38 531.24 307.92 531.24 372.09 458.79"/><path d="M380.83,417.61l16.47-22.18,130.14,147c0,8-.41,13.22-.41,13.22H503Z"/><polygon points="250.87 531.24 193.15 531.24 205.45 479.95 250.87 531.24"/><polygon points="420.34 269.73 431.38 269.73 431.38 282.19 420.34 269.73"/><path d="M335.05,269.72h36.21l92.65,104.61c.93,15.41-1.91,28.5,1.44,42.52Z"/><path d="M377.75,269.72h36.11l17.52,19.78v23.17a84.78,84.78,0,0,1,25.12,32A81.12,81.12,0,0,1,463,366Z"/><path d="M400.26,391.45l4.69-6.32L362.58,328l-8.42,11.34-61.7-69.68h36.11L470.09,429.52c10.47,20.49,27.22,24.89,43.46,47.64,10.52,14.74,13.27,39.93,13.79,57.78Z"/><path d="M265.65,11.33c6.87-2.3,12.55-.64,16.9,4.88,1,1,2,2.88,3,5.84l3.92,11.73c2.53,7.57.87,13.65-4.73,18.16a32.63,32.63,0,0,1-5.13,2.37l-40.74,13.6,9.3,27.82c.15.48,0,.68-.4.79l-12.91,4.31a.53.53,0,0,1-.73-.21.64.64,0,0,1-.06-.18l-23.4-70.1c0-.39,0-.67.39-.79ZM234.17,53.82,275.85,39.9,271,25.22,229.27,39.14Z"/><path d="M361.86,0q11.77-.57,15.2,12c.19,1.36.4,3.1.5,5.22l.47,9.6c.44,9.1-2.65,14.88-9.4,17.45a30.63,30.63,0,0,1-5.46.89l-2.24.11L381.3,73.71v.62l-16.71.81q-3-3-20.9-29l-23.78,1.18,1.42,29.3a.6.6,0,0,1-.55.65h0l-13.34.65c-.37,0-.51-.23-.53-.6L303.29,3.51c0-.38.09-.63.47-.65ZM319.19,32.48l44.13-2.14-.74-15.46L318.44,17Z"/><path d="M442,10.85c16.9,3.91,26,13.71,27.19,29.23a30.88,30.88,0,0,1-.55,6.79L464.5,64.75c-2.11,9.12-8.41,15.86-18.69,20.4q-8.21,3.09-19,.6l-12.29-2.84c-14.83-3.43-23.12-13-24.72-28.79a37.35,37.35,0,0,1,.63-7.15l3.85-16.67c2.51-10.82,10.1-18.16,22.54-22.07,4.34-1.05,10.07-.87,17.36.82ZM405.3,48.73c-1.67,7.18.43,13,6.11,17.31a30.93,30.93,0,0,0,7.71,2.68l11.07,2.56q12.21,2.84,18.41-6.5A23.54,23.54,0,0,0,450.09,61l4-17.15q2.32-10-8.83-16.65a62.51,62.51,0,0,0-6-1.77l-8.76-2q-13.5-3.12-18.81,4.88c-1.43,1.2-2.48,3.52-3.27,6.93Z"/><path d="M512.62,36.43c.43.26-.81,17.41-3.71,51.17.37,1.1-.05,6.66-1.11,16.94l.32.19C546.2,80.24,565.43,68,566,68.36l13.17,7.88c.36.36.34.64.22.86l-38,63.41c-.26.43-.43.47-.86.22l-11.67-7a.52.52,0,0,1-.33-.67.52.52,0,0,1,.11-.19l23-38.45-.21-.13q-42.49,27.6-42.94,27.26l-15.64-9.36c-.42-.26.8-17.13,3.63-50.79l-.22-.12-23,38.45a.53.53,0,0,1-.69.32.42.42,0,0,1-.17-.1l-11.67-7c-.43-.26-.47-.43-.22-.86l38-63.41a.6.6,0,0,1,.81-.24l.05,0Z"/><path d="M636.05,137.88c4.81,5.41,5.52,11.29,2.15,17.46-.52,1.3-1.85,3-4.19,5.06l-9.23,8.21c-6,5.31-12.22,6.18-18.56,2.8a31.4,31.4,0,0,1-4.2-3.79l-28.53-32.09L551.56,155a.52.52,0,0,1-.74.11.54.54,0,0,1-.14-.16l-9-10.17a.53.53,0,0,1-.1-.74,1.07,1.07,0,0,1,.16-.14l55.19-49.1c.37-.16.64-.23.88,0Zm-51.46-12.22,29.2,32.84,11.57-10.28-29.19-32.85Z"/><path d="M691,235.45c0,.4,0,.67-.29.84l-12.23,6a.57.57,0,0,1-.79-.2.3.3,0,0,1,0-.08L665,216l-54.19,26.42a.57.57,0,0,1-.79-.2l0-.08-6-12.23a.6.6,0,0,1,.24-.81l.05,0,54.19-26.43L645.5,176.18a.59.59,0,0,1,.21-.8l.07,0,12.23-6c.4-.06.67,0,.84.28Z"/><path d="M707.69,314c-.1.5-.34.64-.59.65l-33.4,1.88,1.55,27.55c.53,9.47,4.1,15.14,10.58,17,1.55.79,3.81,1,6.8.87l17.08-1a.59.59,0,0,1,.65.51v.08l.77,13.58c-.11.38-.34.65-.59.66l-18.57,1c-9.6.54-18.21-3.6-25.84-12.55-5.66,8.2-13.29,12.63-22.76,13.16-4.61.26-7.14-.22-7.45-1.21L635.13,362l.21-.63a21.1,21.1,0,0,0,6.95,1.23c8-.45,12.94-5.48,15.16-14.85,1.76-6.6,2.56-10.15,2.53-10.65l-1.11-19.81-25.55,1.43c-.5,0-.63-.09-.66-.59l-.76-13.58c0-.38.09-.63.58-.66l73.79-4.15c.38.11.64.34.66.59Z"/><path d="M705.72,407.53c-.17.36-.45.58-.69.55l-73.37-8.85c-.5-.06-.59-.33-.55-.7L632.74,385c.06-.49.2-.6.7-.54l73.36,8.85a.59.59,0,0,1,.56.62.19.19,0,0,1,0,.08Z"/><path d="M701,436.19l-63.13,33.57,47.6,14.68a.59.59,0,0,1,.43.72s0,0,0,.06l-4,13c-.23.32-.54.49-.78.41l-70.62-21.78c-.48-.14-.52-.42-.41-.78l3.09-10,62.26-33.31L628.54,418.3c-.47-.15-.56-.3-.41-.78l4-13a.54.54,0,0,1,.6-.47l.18.05,70.62,21.78a.82.82,0,0,1,.42.78Z"/><path d="M590,557.85c-7.83-5.14-12-13.28-12.69-24.59q-.07-8.79,6-18l6.91-10.55c8.35-12.73,20.23-17.19,35.57-13.25a36.28,36.28,0,0,1,6.49,3.06l14.31,9.38c9.29,6.09,13.62,15.65,12.93,28.78-.35,4.4-2.67,9.75-6.77,16l-4.38,6.69c-9.52,14.51-21.87,19.69-36.83,15.41-1.08-.41-2-.75-2.85-1.12L617,557c4.62,1.38,9.56,0,14.9-4.27a60.65,60.65,0,0,0,3.73-5l4.93-7.51q7.59-11.6,1.93-19.34c-.64-1.76-2.45-3.55-5.38-5.46l-11.58-7.6c-6.16-4-12.33-4.2-18.36-.24a31,31,0,0,0-5.18,6.3l-6.23,9.5q-6.87,10.5-.26,19.54a23.31,23.31,0,0,0,3,2.71l.31.2,12.94-19.73c1.57-2.4,3.08-4.7,4.55-7.17l12.52,8.22L603,566.51l-12.42-8.15.06-.1Z"/><path d="M531.24,630.92c-3.73,2.73-7.43,3-11,.44A12.15,12.15,0,0,1,519,630l-.58-.8c-1.85-2.52-1.63-5.62.66-9.46l.94-.84,31.25-22.82c4.52-2.07,8.23-1.22,11,2.61,2.07,2.82,1.83,6.09-.75,10a19.64,19.64,0,0,1-2.14,1.72Z"/><path d="M427.47,703c-7,2-12.57,0-16.63-5.72-.94-1-1.87-3-2.71-6l-3.34-11.9c-2.15-7.69-.2-13.69,5.62-17.91a32.6,32.6,0,0,1,5.24-2.11L457,647.82l-7.9-28.24a.53.53,0,0,1,.23-.71.66.66,0,0,1,.2-.06l13.1-3.67a.53.53,0,0,1,.71.23.56.56,0,0,1,.06.2l19.92,71.17c0,.39-.07.66-.43.76ZM461,662.13,418.7,674l4.17,14.91L465.18,677Z"/><path d="M332.07,710q-11.79.18-14.81-12.5c-.15-1.37-.3-3.11-.33-5.24l-.16-9.61c-.15-9.11,3.13-14.78,10-17.14a30.68,30.68,0,0,1,5.48-.71h2.25l-19.45-29v-.63l16.72-.27q2.87,3.14,20,29.64l23.84-.39-.47-29.33a.57.57,0,0,1,.53-.62h.08l13.36-.22c.37,0,.5.24.51.62l1.2,73.89c0,.37-.12.62-.49.63Zm43.69-31-44.18.71.25,15.48,44.19-.72Z"/><path d="M251.34,694.89c-16.69-4.74-25.33-15-25.72-30.53a30.94,30.94,0,0,1,.88-6.76l5-17.65c2.55-9,9.18-15.43,19.67-19.46q8.36-2.7,19,.33l12.13,3.44c14.65,4.16,22.45,14.16,23.28,30a37.93,37.93,0,0,1-1,7.12l-4.67,16.45c-3,10.69-11,17.65-23.6,20.94-4.39.83-10.1.38-17.3-1.67Zm38.53-36c2-7.08.2-13-5.26-17.58a30.9,30.9,0,0,0-7.57-3.06l-10.93-3.1q-12.06-3.43-18.71,5.58a24.37,24.37,0,0,0-1.7,3.67l-4.8,16.94q-2.82,9.9,8,17.06a56.51,56.51,0,0,0,5.9,2.07l8.64,2.45q13.33,3.8,19-3.94c1.49-1.13,2.66-3.4,3.61-6.76Z"/><path d="M182.05,665.85c-.42-.27,1.66-17.34,6.21-50.93-.31-1.1.38-6.64,1.94-16.86l-.31-.21c-39.23,22.6-59,33.85-59.56,33.5l-12.77-8.52c-.35-.38-.32-.65-.18-.86l41-61.48c.28-.42.45-.45.87-.17l11.32,7.55a.54.54,0,0,1,.28.7.46.46,0,0,1-.11.16L145.88,606l.21.13q43.79-25.49,44.22-25.12l15.16,10.11c.42.28-1.63,17.07-6.1,50.55l.2.14,24.87-37.28a.55.55,0,0,1,.87-.18l11.32,7.56c.41.27.45.45.17.86l-41,61.48a.59.59,0,0,1-.81.22l-.06,0Z"/><path d="M63.74,558.53c-4.55-5.64-5-11.55-1.31-17.55.58-1.27,2-2.89,4.43-4.84l9.63-7.76c6.22-5,12.5-5.57,18.67-1.89a33.58,33.58,0,0,1,4,4l26.94,33.43,22.9-18.4a.54.54,0,0,1,.76,0,.53.53,0,0,1,.12.14l8.53,10.6a.54.54,0,0,1,.06.75.44.44,0,0,1-.15.12l-57.56,46.35c-.37.14-.65.2-.88-.09Zm50.79,14.71L87,539l-12.09,9.7L102.47,583Z"/><path d="M13.6,458.33c0-.39,0-.67.32-.82l12.51-5.35a.58.58,0,0,1,.78.24l0,.08,11.4,26.63,55.43-23.73a.58.58,0,0,1,.78.25l0,.08,5.36,12.5a.6.6,0,0,1-.28.8l0,0L44.5,492.77l11.59,27.08a.59.59,0,0,1-.26.8l-.06,0L43.26,526c-.4,0-.68,0-.82-.32Z"/><path d="M1,379.92c.11-.5.36-.63.61-.64l33.45-.54-.45-27.58c-.15-9.49-3.49-15.3-9.89-17.45-1.52-.85-3.77-1.18-6.76-1.14l-17.1.28a.59.59,0,0,1-.64-.53v-.08L0,318.63c.12-.37.36-.63.61-.63l18.6-.3c9.61-.16,18,4.32,25.32,13.57,6-8,13.78-12.09,23.27-12.24,4.62-.08,7.12.51,7.39,1.5l.23,14.23-.24.63a22,22,0,0,0-6.89-1.51c-8,.13-13.15,5-15.75,14.24-2,6.52-3,10-2.95,10.53l.32,19.85,25.59-.42c.5,0,.63.12.64.62l.22,13.6c0,.38-.12.63-.62.64l-73.89,1.2c-.37-.12-.63-.37-.63-.62Z"/><path d="M7.32,285.77a.79.79,0,0,1,.72-.51l72.84,12.43c.5.09.58.35.51.72L79.1,311.82c-.08.5-.22.6-.72.51L5.54,299.9a.58.58,0,0,1-.52-.65.2.2,0,0,1,0-.07Z"/><path d="M13.43,257.37,78.14,227,31.32,210a.59.59,0,0,1-.4-.74s0,0,0-.06l4.65-12.79a.82.82,0,0,1,.8-.38l69.46,25.23a.55.55,0,0,1,.44.63.49.49,0,0,1-.06.17l-3.58,9.86L38.81,262.08l46.12,16.75c.47.17.54.33.37.8l-4.64,12.79a.54.54,0,0,1-.63.44.36.36,0,0,1-.17-.07L10.39,267.56c-.31-.25-.46-.57-.37-.8Z"/><path d="M130.27,141.3c7.57,5.51,11.38,13.85,11.47,25.18q-.36,8.79-6.87,17.7l-7.42,10.19Q114,212.85,91.29,205.87A33.42,33.42,0,0,1,85,202.49L71.12,192.43c-9-6.54-12.84-16.3-11.5-29.38.56-4.37,3.13-9.6,7.54-15.66l4.7-6.46c10.21-14,22.81-18.6,37.53-13.59,1.06.46,2,.84,2.79,1.26l-8.89,12.21c-4.54-1.61-9.54-.46-15.08,3.54a61.2,61.2,0,0,0-4,4.82L79,156.44q-8.16,11.22-2.88,19.21c.55,1.79,2.28,3.67,5.1,5.72l11.21,8.16c6,4.33,12.1,4.8,18.32,1.14a31.52,31.52,0,0,0,5.48-6l6.68-9.18q7.4-10.14,1.22-19.5a24.83,24.83,0,0,0-2.86-2.85l-.3-.22-14,19.07c-1.69,2.32-3.3,4.54-4.89,6.94L90,170l27.7-38,12,8.74-.08.1Z"/><path d="M192.5,71.18c3.86-2.54,7.56-2.59,11,.1a15.19,15.19,0,0,1,1.24,1.42l.54.84c1.72,2.6,1.36,5.68-1.12,9.41l-1,.79L170.84,105c-4.61,1.84-8.28.82-10.89-3.14C158,99,158.43,95.71,161.19,92a19.7,19.7,0,0,1,2.22-1.62Z"/></g></g></g></g></svg>